<?xml version="1.0" standalone="no"?>
<!DOCTYPE svg PUBLIC "-//W3C//DTD SVG 20010904//EN"
 "http://www.w3.org/TR/2001/REC-SVG-20010904/DTD/svg10.dtd">
<svg version="1.0" xmlns="http://www.w3.org/2000/svg"
 width="98" height="96" viewBox="0 0 200.000000 200.000000"
 preserveAspectRatio="xMidYMid meet">

<g transform="translate(0.000000,200.000000) scale(0.100000,-0.100000)"
fill="#000000" stroke="none">
<path d="M833 1985 c-306 -48 -583 -252 -724 -534 -194 -388 -119 -854 185
-1157 226 -225 548 -330 856 -280 332 54 595 247 745 545 167 333 129 739 -98
1043 -222 297 -587 442 -964 383z m109 -434 c89 -38 147 -107 168 -202 42
-190 -128 -366 -322 -334 -60 10 -95 30 -150 83 -142 137 -92 378 93 453 59
24 155 24 211 0z m469 -96 c92 -48 92 -198 0 -244 -47 -25 -91 -27 -131 -6
-56 29 -91 101 -76 159 8 31 53 85 80 96 34 14 95 11 127 -5z m45 -381 c197
-121 187 -406 -18 -516 -36 -19 -59 -23 -133 -23 -98 0 -132 13 -203 79 -99
91 -115 253 -38 369 63 93 138 129 262 124 69 -3 88 -8 130 -33z m-840 -39
c84 -55 83 -186 -1 -241 -36 -23 -120 -22 -154 3 -40 30 -63 81 -58 132 11
105 126 163 213 106z m251 -266 c34 -13 80 -55 99 -91 39 -74 2 -184 -75 -227
-147 -81 -313 68 -247 222 35 83 139 128 223 96z"/>
</g>
</svg>
